<svg width="320" height="130" xmlns="http://www.w3.org/2000/svg" style="background:#fafafa; border:1px solid #e0e0e0; border-radius:4px;"><text x="92.5" y="13" text-anchor="middle" font-size="9" font-family="Arial, sans-serif" font-weight="bold">CYP3A4</text><line x1="30" y1="18" x2="30" y2="108.0" stroke="#ccc" stroke-width="0.5"/><line x1="27" y1="108.0" x2="30" y2="108.0" stroke="#999" stroke-width="0.5"/><text x="25" y="111.0" text-anchor="end" font-size="7" font-family="Arial, sans-serif" fill="#666">0</text><line x1="27" y1="52.0" x2="30" y2="52.0" stroke="#999" stroke-width="0.5"/><text x="25" y="55.0" text-anchor="end" font-size="7" font-family="Arial, sans-serif" fill="#666">10k</text><line x1="30" y1="108.0" x2="155" y2="108.0" stroke="#ccc" stroke-width="0.5"/><circle cx="66.2" cy="43.4" r="3.5" fill="#4477AA" opacity="0.75" stroke="white" stroke-width="0.5"/><circle cx="71.2" cy="34.4" r="3.5" fill="#4477AA" opacity="0.75" stroke="white" stroke-width="0.5"/><circle cx="76.2" cy="29.7" r="3.5" fill="#4477AA" opacity="0.75" stroke="white" stroke-width="0.5"/><circle cx="106.2" cy="30.5" r="3.5" fill="#EE6677" opacity="0.75" stroke="white" stroke-width="0.5"/><circle cx="111.2" cy="34.7" r="3.5" fill="#EE6677" opacity="0.75" stroke="white" stroke-width="0.5"/><circle cx="116.2" cy="52.5" r="3.5" fill="#EE6677" opacity="0.75" stroke="white" stroke-width="0.5"/><circle cx="121.2" cy="35.4" r="3.5" fill="#EE6677" opacity="0.75" stroke="white" stroke-width="0.5"/><text x="71.25" y="125" text-anchor="middle" font-size="8" font-family="Arial, sans-serif" fill="#4477AA">control</text><text x="113.75" y="125" text-anchor="middle" font-size="8" font-family="Arial, sans-serif" fill="#EE6677">treatment</text><text x="252.5" y="13" text-anchor="middle" font-size="9" font-family="Arial, sans-serif" font-weight="bold">CYP2J2</text><line x1="190" y1="18" x2="190" y2="108.0" stroke="#ccc" stroke-width="0.5"/><line x1="187" y1="108.0" x2="190" y2="108.0" stroke="#999" stroke-width="0.5"/><text x="185" y="111.0" text-anchor="end" font-size="7" font-family="Arial, sans-serif" fill="#666">0</text><line x1="187" y1="52.0" x2="190" y2="52.0" stroke="#999" stroke-width="0.5"/><text x="185" y="55.0" text-anchor="end" font-size="7" font-family="Arial, sans-serif" fill="#666">10k</text><line x1="190" y1="108.0" x2="315" y2="108.0" stroke="#ccc" stroke-width="0.5"/><circle cx="226.2" cy="78.6" r="3.5" fill="#4477AA" opacity="0.75" stroke="white" stroke-width="0.5"/><circle cx="231.2" cy="65.8" r="3.5" fill="#4477AA" opacity="0.75" stroke="white" stroke-width="0.5"/><circle cx="236.2" cy="80.1" r="3.5" fill="#4477AA" opacity="0.75" stroke="white" stroke-width="0.5"/><circle cx="266.2" cy="78.4" r="3.5" fill="#EE6677" opacity="0.75" stroke="white" stroke-width="0.5"/><circle cx="271.2" cy="66.9" r="3.5" fill="#EE6677" opacity="0.75" stroke="white" stroke-width="0.5"/><circle cx="276.2" cy="72.9" r="3.5" fill="#EE6677" opacity="0.75" stroke="white" stroke-width="0.5"/><circle cx="281.2" cy="65.9" r="3.5" fill="#EE6677" opacity="0.75" stroke="white" stroke-width="0.5"/><text x="231.25" y="125" text-anchor="middle" font-size="8" font-family="Arial, sans-serif" fill="#4477AA">control</text><text x="273.75" y="125" text-anchor="middle" font-size="8" font-family="Arial, sans-serif" fill="#EE6677">treatment</text><text x="6" y="63.0" text-anchor="middle" font-size="8" font-family="Arial, sans-serif" fill="#666" transform="rotate(-90,6,63.0)">peak area</text></svg>