<svg width="320" height="130" xmlns="http://www.w3.org/2000/svg" style="background:#fafafa; border:1px solid #e0e0e0; border-radius:4px;"><text x="92.5" y="13" text-anchor="middle" font-size="9" font-family="Arial, sans-serif" font-weight="bold">CYP3A4</text><line x1="30" y1="18" x2="30" y2="108.0" stroke="#ccc" stroke-width="0.5"/><line x1="27" y1="108.0" x2="30" y2="108.0" stroke="#999" stroke-width="0.5"/><text x="25" y="111.0" text-anchor="end" font-size="7" font-family="Arial, sans-serif" fill="#666">0</text><line x1="27" y1="43.9" x2="30" y2="43.9" stroke="#999" stroke-width="0.5"/><text x="25" y="46.9" text-anchor="end" font-size="7" font-family="Arial, sans-serif" fill="#666">200k</text><line x1="30" y1="108.0" x2="155" y2="108.0" stroke="#ccc" stroke-width="0.5"/><circle cx="63.8" cy="29.7" r="3.5" fill="#4477AA" opacity="0.75" stroke="white" stroke-width="0.5"/><circle cx="68.8" cy="37.2" r="3.5" fill="#4477AA" opacity="0.75" stroke="white" stroke-width="0.5"/><circle cx="73.8" cy="36.4" r="3.5" fill="#4477AA" opacity="0.75" stroke="white" stroke-width="0.5"/><circle cx="78.8" cy="43.9" r="3.5" fill="#4477AA" opacity="0.75" stroke="white" stroke-width="0.5"/><circle cx="108.8" cy="107.7" r="3.5" fill="#EE6677" opacity="0.75" stroke="white" stroke-width="0.5"/><circle cx="113.8" cy="107.8" r="3.5" fill="#EE6677" opacity="0.75" stroke="white" stroke-width="0.5"/><circle cx="118.8" cy="107.6" r="3.5" fill="#EE6677" opacity="0.75" stroke="white" stroke-width="0.5"/><text x="71.25" y="125" text-anchor="middle" font-size="8" font-family="Arial, sans-serif" fill="#4477AA">control</text><text x="113.75" y="125" text-anchor="middle" font-size="8" font-family="Arial, sans-serif" fill="#EE6677">treatment</text><text x="252.5" y="13" text-anchor="middle" font-size="9" font-family="Arial, sans-serif" font-weight="bold">CYP2J2</text><line x1="190" y1="18" x2="190" y2="108.0" stroke="#ccc" stroke-width="0.5"/><line x1="187" y1="108.0" x2="190" y2="108.0" stroke="#999" stroke-width="0.5"/><text x="185" y="111.0" text-anchor="end" font-size="7" font-family="Arial, sans-serif" fill="#666">0</text><line x1="187" y1="43.9" x2="190" y2="43.9" stroke="#999" stroke-width="0.5"/><text x="185" y="46.9" text-anchor="end" font-size="7" font-family="Arial, sans-serif" fill="#666">200k</text><line x1="190" y1="108.0" x2="315" y2="108.0" stroke="#ccc" stroke-width="0.5"/><circle cx="223.8" cy="60.4" r="3.5" fill="#4477AA" opacity="0.75" stroke="white" stroke-width="0.5"/><circle cx="228.8" cy="66.6" r="3.5" fill="#4477AA" opacity="0.75" stroke="white" stroke-width="0.5"/><circle cx="233.8" cy="68.2" r="3.5" fill="#4477AA" opacity="0.75" stroke="white" stroke-width="0.5"/><circle cx="238.8" cy="61.9" r="3.5" fill="#4477AA" opacity="0.75" stroke="white" stroke-width="0.5"/><circle cx="268.8" cy="99.6" r="3.5" fill="#EE6677" opacity="0.75" stroke="white" stroke-width="0.5"/><circle cx="273.8" cy="98.5" r="3.5" fill="#EE6677" opacity="0.75" stroke="white" stroke-width="0.5"/><circle cx="278.8" cy="99.0" r="3.5" fill="#EE6677" opacity="0.75" stroke="white" stroke-width="0.5"/><text x="231.25" y="125" text-anchor="middle" font-size="8" font-family="Arial, sans-serif" fill="#4477AA">control</text><text x="273.75" y="125" text-anchor="middle" font-size="8" font-family="Arial, sans-serif" fill="#EE6677">treatment</text><text x="6" y="63.0" text-anchor="middle" font-size="8" font-family="Arial, sans-serif" fill="#666" transform="rotate(-90,6,63.0)">peak area</text></svg>